<?xml version="1.0" encoding="UTF-8"?>
<svg id="Layer_1" xmlns="http://www.w3.org/2000/svg" version="1.1" viewBox="0 0 100 100">
  <!-- Generator: Adobe Illustrator 30.3.0, SVG Export Plug-In . SVG Version: 2.1.3 Build 182)  -->
  <path d="M67.51,42.6c-.96-2.26-2.33-4.29-4.07-6.04s-3.78-3.11-6.04-4.07c-2.34-.99-4.83-1.49-7.39-1.49s-5.05.5-7.39,1.49c-2.26.96-4.29,2.33-6.04,4.07s-3.11,3.78-4.07,6.04c-.99,2.34-1.49,4.83-1.49,7.39s.5,5.05,1.49,7.39c.96,2.26,2.33,4.29,4.07,6.04,1.75,1.75,3.78,3.11,6.04,4.07,2.34.99,4.83,1.49,7.39,1.49s5.05-.5,7.39-1.49c2.26-.96,4.3-2.33,6.04-4.07,1.75-1.75,3.11-3.78,4.07-6.04.99-2.34,1.49-4.83,1.49-7.39s-.5-5.05-1.49-7.39ZM50.01,65.93c-8.81,0-15.95-7.14-15.95-15.95s7.15-15.95,15.95-15.95,15.95,7.14,15.95,15.95-7.14,15.95-15.95,15.95Z"/>
  <path d="M62.95,43.5c-.07-.19-.18-.34-.32-.48s-.3-.24-.48-.32c-.19-.07-.39-.11-.59-.11s-.4.04-.57.11c-.19.07-.34.18-.48.32-.14.14-.24.3-.32.48-.08.19-.12.38-.12.59v3.97c-.44-.4-.91-.73-1.44-.99-.67-.33-1.22-.49-2.07-.49s-1.65.16-2.37.49-1.35.77-1.88,1.34c-.53.56-.94,1.22-1.25,1.97-.3.75-.45,1.55-.45,2.42s.15,1.67.45,2.42c.3.76.72,1.42,1.25,1.98s1.16,1,1.88,1.34c.72.33,1.52.49,2.37.49s1.63-.16,2.31-.49c.68-.33,1.27-.77,1.75-1.34.05-.06.09-.12.14-.18l.18.54c.09.52.26.89.49,1.12.24.23.5.34.8.34h0c.55,0,.82-.26.82-.8v-14.13c0-.21-.04-.41-.11-.59h0ZM59.83,54.08c-.17.4-.4.76-.69,1.06-.29.3-.64.54-1.03.72s-.82.27-1.27.27-.88-.09-1.27-.27c-.4-.18-.74-.41-1.03-.72-.29-.3-.52-.65-.68-1.06-.17-.41-.25-.84-.25-1.31s.09-.88.25-1.3c.17-.4.4-.76.68-1.06.29-.3.64-.54,1.03-.72s.82-.27,1.27-.27.88.09,1.27.27c.4.18.73.41,1.03.72.29.3.52.65.69,1.06s.25.84.25,1.3-.08.89-.25,1.31Z"/>
  <path d="M48.96,50.35c-.31-.75-.72-1.41-1.25-1.97-.53-.56-1.16-1-1.88-1.34-.72-.33-1.59-.49-2.37-.49s-1.52.16-2.21.49c-.48.24-.91.52-1.31.85v-3.83c0-.21-.04-.41-.12-.59-.08-.19-.19-.34-.32-.48s-.3-.24-.48-.32c-.18-.07-.36-.11-.57-.11s-.41.04-.59.11c-.19.07-.34.18-.48.32s-.24.3-.32.48c-.07.19-.11.38-.11.59v14.13c0,.54.27.8.8.8.32,0,.58-.11.81-.34s.4-.6.5-1.12l.15-.47s.05.07.08.11c.5.56,1.1,1,1.8,1.34.71.33,1.49.49,2.34.49s1.65-.16,2.37-.49c.72-.33,1.35-.77,1.88-1.34.53-.56.94-1.22,1.25-1.98v-.02c.3-.76.45-1.56.45-2.42s-.15-1.67-.45-2.42h0ZM46.16,54.08c-.17.4-.4.76-.68,1.06-.29.3-.63.54-1.02.72-.39.18-.81.27-1.26.27s-.88-.09-1.27-.27c-.4-.18-.73-.41-1.03-.72-.29-.3-.52-.65-.69-1.06s-.25-.84-.25-1.31.08-.88.25-1.3c.17-.4.4-.76.69-1.06.29-.3.64-.54,1.03-.72s.82-.27,1.27-.27.87.09,1.26.27c.4.18.73.41,1.02.72.29.3.52.65.68,1.06s.25.84.25,1.3-.08.89-.25,1.31Z"/>
</svg>