<?xml version="1.0" encoding="UTF-8"?>
<svg id="Layer_1" xmlns="http://www.w3.org/2000/svg" version="1.1" viewBox="0 0 100 100">
  <!-- Generator: Adobe Illustrator 30.3.0, SVG Export Plug-In . SVG Version: 2.1.3 Build 182)  -->
  <defs>
    <style>
      .st0 {
        fill: #66a80f;
      }

      .st1 {
        fill: #eb052c;
      }

      .st2 {
        fill: #09a3df;
      }
    </style>
  </defs>
  <path class="st1" d="M11.23,36.21c1.13,0,2.22.62,3.06,1.35v.18q.07.03.14.06c1.53.87,2.39,2.76,2.85,4.38.71,2.67.35,5.76-1.04,8.17-.41.68-.85,1.4-1.41,1.97h-.18s-.04.1-.06.14c-.16.29-.37.53-.58.78-.04.05-.09.1-.13.16-.46.53-.93,1.02-1.47,1.47-.37.32-.67.68-.97,1.07-.2.24-.41.47-.62.69-1.06,1.17-1.25,2.37-1.21,3.88.02.27.06.54.1.81-.53.14-.87-.03-1.35-.27-.65-.38-1.09-.94-1.53-1.53-.06-.07-.12-.15-.18-.22-1.06-1.48-1.05-3.37-.79-5.09.43-2.51,1.79-4.68,3.37-6.63.33-.41.58-.87.83-1.32.16-.28.33-.56.5-.83,1.55-2.66,1.52-5.5.78-8.4-.02-.08-.04-.16-.07-.24q-.05-.2-.05-.56Z"/>
  <path d="M83.03,49.7q1.87,0,3.78-.02c.39,0,.78,0,1.19,0q.49,0,.71,0c.16,0,.31,0,.47,0,1.57-.01,3.35.04,4.55,1.2.97,1.13,1.16,2.42,1.1,3.85-.06.76-.4,1.52-.92,2.09-.32.26-.64.5-.99.72-.08.05-.16.1-.24.16q-.21.11-.48.11c.42.9.9,1.76,1.4,2.62.06.1.12.2.18.31.25.42.49.85.74,1.27.03.06.07.12.1.18.09.14.17.29.26.43q.11.24.11.69h-3.96c-.13-.27-.25-.54-.38-.82-.53-1.12-1.12-2.2-1.73-3.28-.04-.07-.08-.15-.13-.22-.04-.06-.07-.13-.11-.2q-.08-.16-.08-.34h-1.98v4.86h-3.51q-.04-6.73-.09-13.59ZM86.54,52.31v3.51c.53,0,1.07.01,1.62.02.17,0,.33,0,.51,0,.14,0,.27,0,.4,0,.07,0,.14,0,.21,0,.52,0,1.04-.07,1.45-.42.4-.46.53-.87.51-1.47-.06-.56-.27-.96-.65-1.36-.5-.31-1.09-.32-1.66-.31-.06,0-.12,0-.19,0-.23,0-.45,0-.68,0-.5,0-1.01,0-1.53.01Z"/>
  <path d="M51.63,50.69c1.46,1.26,2.37,2.91,2.59,4.84.14,2.08-.19,4.24-1.6,5.87-.05.06-.11.12-.16.19-1.25,1.35-2.89,2.09-4.72,2.18-2.03.06-3.77-.42-5.29-1.83-1.3-1.25-2.12-3.02-2.19-4.83-.03-2.04.33-3.96,1.74-5.52.05-.06.1-.13.15-.19.58-.72,1.33-1.19,2.19-1.52.08-.03.16-.06.25-.1,2.21-.8,5.16-.63,7.04.91ZM44.79,53.3c-.07.07-.13.13-.2.2-.85,1.33-.86,3.05-.54,4.54q.02.1.04.2c.1.43.25.73.52,1.09.04.06.08.11.12.17.48.6,1.12.98,1.86,1.18,1,.09,1.92,0,2.71-.65.99-.94,1.41-2.18,1.46-3.53-.06-1.37-.44-2.64-1.47-3.6-1.35-1.08-3.33-.79-4.5.4Z"/>
  <path d="M37.95,50.87c.37.32.73.65,1.08.99-.13.34-.3.46-.61.64-.5.3-.94.65-1.38,1.03q-.38.31-.68.32c-.25-.11-.4-.24-.6-.43-.96-.89-1.89-1.14-3.2-1.12-.52.04-.87.17-1.27.52-.21.24-.27.34-.3.65.04.38.1.48.39.74.64.32,1.32.4,2.02.49,1.92.24,3.86.63,5.14,2.21.56.81.57,1.8.43,2.75-.22,1.12-.6,1.75-1.39,2.56q-.09.09-.18.18c-1.43,1.36-3.64,1.41-5.49,1.36-2.24-.1-3.89-1.26-5.49-2.71.03-.23.06-.33.23-.48.06-.04.12-.07.19-.11q.1-.06.21-.12t.22-.13c.15-.09.3-.17.45-.26q.11-.06.22-.13c.31-.18.61-.38.9-.58.28-.11.45-.07.73.02q.25.17.51.38c1.12.88,2.31,1.19,3.72,1.06.62-.12,1.15-.29,1.53-.82.15-.28.2-.48.18-.8-.25-.39-.46-.58-.9-.72-.28-.06-.56-.1-.84-.14-.17-.03-.34-.05-.5-.08-.26-.04-.52-.08-.79-.12-1.58-.23-3.44-.52-4.48-1.86-.49-.69-.64-1.38-.62-2.22,0-.08,0-.16,0-.24.01-.56.06-1.05.3-1.56.04-.1.09-.19.14-.29.64-1.27,1.49-1.82,2.8-2.3,2.41-.71,5.35-.26,7.32,1.33Z"/>
  <path d="M73.13,49.7h3.6c.29.58.55,1.13.78,1.74.06.17.12.33.19.5.03.09.07.18.1.27.12.31.24.62.36.93q.75,1.94,1.03,2.82c.23.7.5,1.38.77,2.07.6,1.47,1.15,2.96,1.67,4.46.05.14.11.28.17.42q.07.19.07.46h-3.78c-.21-.65-.42-1.31-.63-1.98-1.6-.03-3.21-.06-4.86-.09-.06.27-.12.53-.18.81-.12.42-.24.83-.36,1.26h-3.78c.07-.46.12-.75.28-1.17q.06-.15.12-.31c.04-.11.09-.22.13-.33.36-.93.7-1.86,1.01-2.81.41-1.26.87-2.5,1.35-3.74.47-1.22.9-2.44,1.3-3.69.04-.11.07-.22.11-.33q.05-.14.09-.29c.13-.35.3-.68.47-1.02ZM74.84,53.39c-.3.93-.58,1.85-.82,2.79-.14.54-.3,1.08-.48,1.61-.1.29-.14.5-.14.82h3.06q-.13-.69-.31-1.36c-.02-.08-.05-.16-.07-.24-.03-.08-.05-.16-.08-.24-.03-.09-.05-.17-.08-.26-.06-.18-.11-.36-.17-.54-.09-.27-.18-.55-.26-.82-.06-.18-.11-.35-.17-.53-.03-.08-.05-.16-.08-.25-.02-.08-.05-.15-.07-.23q-.03-.1-.06-.2c-.07-.19-.15-.37-.25-.55Z"/>
  <path d="M66.18,50.67c.59.57,1.25,1.21,1.55,2q0,.22-.09.45t-.49.3c-.1.05-.2.1-.3.16q-.16.08-.32.16c-.1.05-.21.11-.31.17q-.77.39-1.03.37c-.22-.1-.26-.22-.36-.44-.33-.63-.86-1.1-1.52-1.37-.79-.18-1.8-.22-2.53.19-.05.04-.11.07-.16.11-.06.04-.11.07-.17.11-.75.57-1.14,1.48-1.32,2.38-.19,1.4-.06,2.86.72,4.07q.14.19.34.37.16.17.16.35c.06.03.13.05.2.08.16.06.32.13.48.2.68.28,1.35.41,2.08.19.83-.35,1.6-.91,2.02-1.73.43.13.83.3,1.24.48.06.03.13.06.19.08.47.21.92.43,1.36.7-.54,1.52-1.91,2.65-3.33,3.33-1.58.64-3.41.5-4.97-.12-.49-.22-.99-.46-1.42-.78v-.18c-.05-.02-.1-.05-.16-.07-.2-.11-.36-.23-.54-.38-.06-.05-.11-.09-.17-.14q-.13-.13-.13-.31h-.18c-.14-.19-.27-.38-.39-.58-.04-.06-.07-.12-.11-.18-1.18-1.9-1.32-4.27-.84-6.43.39-1.58,1.37-3.12,2.78-3.98,2.36-1.17,5.6-1.42,7.71.43Z"/>
  <path class="st0" d="M19.42,46.01c1.44,1.17,2.34,2.82,2.59,4.67.16,1.6-.01,3.05-.59,4.55-.03.07-.06.15-.09.23-.3.74-.77,1.31-1.31,1.89q-.12.13-.24.26c-.09.1-.18.19-.28.29-.06.06-.12.12-.17.19-.52.54-1.08.94-1.7,1.35-.18.12-.37.24-.55.36q-.13.09-.27.18c-.35.24-.7.49-1.04.74-.18.13-.36.26-.55.38-.61.39-1.15.77-1.38,1.49-.04.39-.03.77,0,1.17-.49.01-.72-.13-1.09-.46-.37-.36-.65-.71-.89-1.16-.04-.08-.08-.15-.12-.23-.48-.93-.57-1.88-.33-2.91.11-.31.23-.61.37-.91.03-.08.07-.15.11-.23.58-1.09,1.63-1.98,2.5-2.83.08-.08.16-.16.24-.24.12-.12.24-.24.36-.36,2.09-2.05,3.64-4.6,4.14-7.5.01-.08.03-.16.04-.24.01-.07.02-.14.04-.21q.05-.19.23-.46Z"/>
  <path class="st2" d="M7,38.46c.82,0,1.45.26,2.08.79.77.81,1.01,1.85,1,2.93-.03.5-.14.94-.29,1.42-.02.08-.04.16-.06.24-.27.9-.88,1.64-1.43,2.39q-1.05,1.4-1.57,3.04c-.81-.26-1.24-.89-1.62-1.62-.13-.43-.11-.88-.11-1.33,0-.08,0-.15,0-.23,0-1.18.39-2.15,1.14-3.07.41-.5.68-1.08.94-1.67.04-.07.07-.14.11-.22.1-.31.1-.61.1-.93,0-.06,0-.13,0-.19,0-.48-.09-.83-.3-1.26v-.27Z"/>
</svg>