<?xml version="1.0" encoding="UTF-8"?>
<svg id="Layer_1" xmlns="http://www.w3.org/2000/svg" version="1.1" viewBox="0 0 100 100">
  <!-- Generator: Adobe Illustrator 30.3.0, SVG Export Plug-In . SVG Version: 2.1.3 Build 182)  -->
  <path d="M89.4,33.36c-2.15-5.09-5.24-9.66-9.17-13.59-3.93-3.93-8.5-7.01-13.59-9.17-5.27-2.23-10.87-3.36-16.64-3.36s-11.37,1.13-16.64,3.36c-5.09,2.15-9.66,5.24-13.59,9.17-3.93,3.93-7.01,8.5-9.16,13.59-2.23,5.27-3.36,10.87-3.36,16.64s1.13,11.37,3.36,16.64c2.15,5.09,5.24,9.66,9.16,13.59,3.93,3.93,8.5,7.01,13.59,9.16,5.27,2.23,10.87,3.36,16.64,3.36s11.37-1.13,16.64-3.36c5.09-2.15,9.67-5.24,13.59-9.16,3.93-3.93,7.01-8.5,9.17-13.59,2.23-5.27,3.36-10.87,3.36-16.64s-1.13-11.37-3.36-16.64ZM50.02,85.87c-19.84,0-35.91-16.07-35.91-35.91S30.2,14.05,50.02,14.05s35.91,16.07,35.91,35.91-16.07,35.91-35.91,35.91Z"/>
  <path d="M79.15,35.38c-.16-.42-.4-.76-.71-1.07-.31-.31-.67-.54-1.07-.71-.42-.16-.87-.25-1.32-.25s-.89.09-1.29.25c-.42.16-.76.4-1.07.71-.31.31-.54.67-.72,1.07-.18.42-.27.85-.27,1.32v8.93c-.98-.91-2.05-1.65-3.24-2.23-1.5-.74-2.75-1.11-4.67-1.11s-3.71.36-5.34,1.11-3.04,1.74-4.24,3.01c-1.2,1.27-2.12,2.75-2.81,4.44-.67,1.68-1.01,3.5-1.01,5.44s.33,3.75,1.01,5.45c.67,1.7,1.61,3.19,2.81,4.46,1.2,1.27,2.61,2.26,4.24,3.01,1.63.74,3.42,1.11,5.34,1.11s3.66-.36,5.2-1.11c1.54-.74,2.86-1.74,3.95-3.01.11-.13.2-.27.31-.4l.4,1.21c.2,1.16.58,2.01,1.11,2.52.53.51,1.12.76,1.81.76v.02c1.23,0,1.85-.6,1.85-1.81v-31.8c0-.47-.09-.92-.25-1.32ZM72.12,59.2c-.38.91-.89,1.7-1.56,2.39-.65.67-1.43,1.21-2.32,1.61-.89.4-1.85.6-2.86.6s-1.97-.2-2.86-.6c-.89-.4-1.67-.92-2.32-1.61-.65-.67-1.18-1.47-1.54-2.39-.38-.92-.56-1.9-.56-2.94s.2-1.99.56-2.92c.38-.91.89-1.7,1.54-2.39.65-.67,1.43-1.21,2.32-1.61.89-.4,1.85-.6,2.86-.6s1.97.2,2.86.6c.89.4,1.65.92,2.32,1.61.65.67,1.18,1.47,1.56,2.39.38.92.56,1.88.56,2.92s-.18,2.01-.56,2.94Z"/>
  <path d="M47.66,50.8c-.69-1.68-1.61-3.17-2.81-4.44-1.2-1.27-2.61-2.26-4.24-3.01-1.63-.74-3.59-1.11-5.34-1.11s-3.42.36-4.98,1.11c-1.07.53-2.05,1.16-2.94,1.92v-8.61c0-.47-.09-.92-.27-1.32-.18-.42-.42-.76-.72-1.07s-.67-.54-1.07-.71c-.4-.16-.82-.25-1.29-.25s-.92.09-1.32.25c-.42.16-.76.4-1.07.71s-.54.67-.71,1.07c-.16.42-.25.85-.25,1.32v31.8c0,1.21.6,1.81,1.81,1.81.71,0,1.3-.25,1.83-.76.53-.51.89-1.34,1.12-2.52l.34-1.05c.05.07.11.16.18.24,1.12,1.27,2.48,2.26,4.06,3.01,1.59.74,3.35,1.11,5.27,1.11s3.71-.36,5.34-1.11c1.63-.74,3.04-1.74,4.24-3.01,1.2-1.27,2.12-2.75,2.81-4.46v-.04c.67-1.7,1.01-3.51,1.01-5.45s-.33-3.75-1.01-5.44ZM41.36,59.2c-.38.91-.89,1.7-1.54,2.39-.65.67-1.41,1.21-2.3,1.61-.87.4-1.83.6-2.84.6s-1.97-.2-2.86-.6c-.89-.4-1.65-.92-2.32-1.61-.65-.67-1.18-1.47-1.56-2.39-.38-.92-.56-1.9-.56-2.94s.18-1.99.56-2.92c.38-.91.89-1.7,1.56-2.39.65-.67,1.43-1.21,2.32-1.61.89-.4,1.85-.6,2.86-.6s1.96.2,2.84.6c.89.4,1.65.92,2.3,1.61.65.67,1.16,1.47,1.54,2.39.38.92.56,1.88.56,2.92s-.18,2.01-.56,2.94Z"/>
</svg>