<?xml version="1.0" encoding="UTF-8"?>
<svg id="Layer_1" xmlns="http://www.w3.org/2000/svg" version="1.1" viewBox="0 0 348.08 91.3">
  <!-- Generator: Adobe Illustrator 30.3.0, SVG Export Plug-In . SVG Version: 2.1.3 Build 182)  -->
  <defs>
    <style>
      .st0 {
        isolation: isolate;
      }
    </style>
  </defs>
  <g>
    <path d="M3.52,37.72h.61c.61,8.53,5.83,14.43,17.25,14.43,9.76,0,14.98-4.54,14.98-11.73,0-5.46-3.07-9.21-9.03-10.13l-13.26-2.03c-6.63-.98-9.58-5.4-9.58-10.56,0-7,5.34-11.36,14.92-11.36,10.13,0,15.17,4.91,16.27,12.46h-.61c-1.04-7.31-5.96-11.91-15.66-11.91s-14.31,4.11-14.31,10.81c0,4.85,2.76,9.03,9.15,9.95l13.26,1.96c6.2.92,9.52,5.04,9.52,10.81,0,7.49-5.53,12.28-15.66,12.28-11.85,0-17.32-6.2-17.87-14.98,0,0,.02,0,.02,0Z"/>
    <path d="M46.62,7.27v13.32h.06c2.58-9.21,9.03-14.25,18.24-14.25s14.18,4.97,14.18,16.21v29.23h-.61v-28.92c0-10.87-4.3-15.96-13.63-15.96-11.11,0-18.24,8.29-18.24,19.96v24.93h-.61V7.27s.61,0,.61,0Z"/>
    <path d="M87.58,29.49c0-13.63,8.17-23.15,20.57-23.15s20.57,9.52,20.57,23.15-8.17,23.21-20.57,23.21-20.57-9.58-20.57-23.21h0ZM128.1,29.49c0-12.96-7.74-22.6-19.96-22.6s-19.96,9.58-19.96,22.6,7.68,22.66,19.96,22.66,19.96-9.82,19.96-22.66h0Z"/>
    <path d="M131.6,7.27h.68l7.61,26.4,4.91,17.01h.06l4.91-16.95,7.68-26.46h.68l7.61,26.28,4.97,17.19h.06l4.91-17.07,7.61-26.4h.68l-12.83,44.52h-.74l-10.25-35.43-2.33-8.04h-.06l-2.33,8.04-10.25,35.43h-.74l-12.83-44.52h0Z"/>
    <path d="M190.06,7.27h15.6c8.6,0,13.39,3.87,13.39,10.99,0,5.53-3.56,8.96-7.86,9.95v.06c6.08,1.17,9.82,5.34,9.82,11.24,0,8.23-6.57,12.28-13.94,12.28h-17.01V7.27h0ZM218.43,18.26c0-6.69-4.61-10.44-12.83-10.44h-14.92v20.2h17.19c6.14,0,10.56-3.75,10.56-9.76ZM220.39,39.5c0-6.51-4.91-10.93-12.53-10.93h-17.19v22.66h16.33c7.06,0,13.39-3.87,13.39-11.73Z"/>
    <path d="M227.51,40.55c0-7.37,5.1-11.85,16.27-12.65l16.46-1.17v-2.7c0-9.52-2.7-17.13-14.55-17.13-10.68,0-15.6,5.77-15.9,11.73h-.55c.25-5.71,4.91-12.28,16.46-12.28s15.17,6.26,15.17,17.68v22.84c0,3.81,1.23,5.28,4.42,5.28,1.11,0,2.09-.12,3.07-.31h.06v.55c-1.04.18-2.09.31-3.25.31-3.56,0-4.91-1.72-4.91-5.89v-8.53h-.06c-2.95,9.76-9.76,14.43-18.79,14.43-8.41,0-13.88-4.05-13.88-12.16h-.02ZM241.7,52.15c10.81,0,18.54-8.23,18.54-19.71v-5.16l-17.01,1.23c-8.47.61-15.11,3.81-15.11,12.03,0,5.53,2.64,11.6,13.57,11.6h.01,0Z"/>
    <path d="M287.07,52.15c3.99,0,7.74-.92,11.42-2.89h.06v.55c-3.56,1.9-7.43,2.89-11.54,2.89-8.96,0-13.63-4.54-13.63-14.37V7.26h.61v31.07c0,9.58,4.36,13.82,13.08,13.82h0Z"/>
    <path d="M319,52.15c3.99,0,7.74-.92,11.42-2.89h.06v.55c-3.56,1.9-7.43,2.89-11.54,2.89-8.96,0-13.63-4.54-13.63-14.37V7.26h.61v31.07c0,9.58,4.36,13.82,13.08,13.82h0Z"/>
    <path d="M332.41,43.13h12.16v12.65h-12.16v-12.65Z"/>
  </g>
  <g class="st0">
    <g class="st0">
      <path d="M5.6,84.75v-.26h.03c.58.15,1.02.2,1.57.2,2.1,0,3-.82,4.54-4.05l.38-.79L3.91,63.4h.32l6.35,12.73,1.69,3.38h.03l1.54-3.23,6.15-12.88h.32l-8.27,17.3c-1.63,3.38-2.62,4.25-4.84,4.25-.58,0-1.05-.06-1.6-.2Z"/>
      <path d="M20.63,73.94c0-6.47,3.87-10.98,9.76-10.98s9.76,4.52,9.76,10.98-3.87,11.01-9.76,11.01-9.76-4.54-9.76-11.01ZM39.86,73.94c0-6.15-3.67-10.72-9.47-10.72s-9.47,4.54-9.47,10.72,3.64,10.75,9.47,10.75,9.47-4.66,9.47-10.75Z"/>
      <path d="M59.38,84.51v-6.35h-.03c-1.22,4.4-4.31,6.79-8.59,6.79s-6.55-2.36-6.55-7.69v-13.87h.29v13.72c0,5.16,2.01,7.57,6.29,7.57,5.24,0,8.59-3.93,8.59-9.47v-11.83h.29v21.12h-.29Z"/>
      <path d="M64.47,63.4h.29v5.21h.03c1.05-3.41,3.44-5.65,7.14-5.65.73,0,1.4.09,1.98.26v.26h-.03c-.64-.17-1.31-.26-2.01-.26-4.95,0-7.11,4.46-7.11,7.78v13.52h-.29v-21.12Z"/>
      <path d="M83.73,73.94c0-6.47,3.87-10.98,9.73-10.98,4.6,0,7.63,2.8,8.33,6.99h-.26c-.67-4.05-3.61-6.73-8.07-6.73-5.8,0-9.44,4.54-9.44,10.72s3.64,10.75,9.47,10.75c4.49,0,7.66-2.91,8.16-7.31h.26c-.44,4.46-3.79,7.57-8.42,7.57-5.88,0-9.76-4.54-9.76-11.01Z"/>
      <path d="M105.05,73.94c0-6.47,3.87-10.98,9.76-10.98s9.76,4.52,9.76,10.98-3.87,11.01-9.76,11.01-9.76-4.54-9.76-11.01ZM124.28,73.94c0-6.15-3.67-10.72-9.47-10.72s-9.47,4.54-9.47,10.72,3.64,10.75,9.47,10.75,9.47-4.66,9.47-10.75Z"/>
      <path d="M128.91,63.4v6.32h.03c1.11-4.05,3.9-6.76,7.89-6.76s5.85,2.48,6.03,6.93h.03c1.02-4.34,3.99-6.93,7.92-6.93,3.73,0,6.06,2.42,6.06,7.69v13.87h-.29v-13.72c0-4.92-1.95-7.57-5.8-7.57-4.63,0-7.89,3.93-7.89,9.44v11.86h-.29v-13.72c0-5.1-1.95-7.57-5.8-7.57-4.78,0-7.89,4.17-7.89,9.47v11.83h-.29v-21.12h.29Z"/>
      <path d="M161.97,63.4v6.32h.03c1.11-4.05,3.9-6.76,7.89-6.76s5.85,2.48,6.03,6.93h.03c1.02-4.34,3.99-6.93,7.92-6.93,3.73,0,6.06,2.42,6.06,7.69v13.87h-.29v-13.72c0-4.92-1.95-7.57-5.8-7.57-4.63,0-7.89,3.93-7.89,9.44v11.86h-.29v-13.72c0-5.1-1.95-7.57-5.8-7.57-4.78,0-7.89,4.17-7.89,9.47v11.83h-.29v-21.12h.29Z"/>
      <path d="M209.92,84.51v-6.35h-.03c-1.22,4.4-4.31,6.79-8.59,6.79s-6.55-2.36-6.55-7.69v-13.87h.29v13.72c0,5.16,2.01,7.57,6.29,7.57,5.24,0,8.59-3.93,8.59-9.47v-11.83h.29v21.12h-.29Z"/>
      <path d="M215.31,63.4v6.32h.03c1.22-4.37,4.28-6.76,8.65-6.76s6.73,2.36,6.73,7.69v13.87h-.29v-13.72c0-5.16-2.04-7.57-6.47-7.57-5.27,0-8.65,3.93-8.65,9.47v11.83h-.29v-21.12h.29Z"/>
      <path d="M235.52,58.79h.41v1.57h-.41v-1.57ZM235.58,63.4h.29v21.12h-.29v-21.12Z"/>
      <path d="M239.95,73.94c0-6.47,3.87-10.98,9.73-10.98,4.6,0,7.63,2.8,8.33,6.99h-.26c-.67-4.05-3.61-6.73-8.07-6.73-5.8,0-9.44,4.54-9.44,10.72s3.64,10.75,9.47,10.75c4.49,0,7.66-2.91,8.16-7.31h.26c-.44,4.46-3.79,7.57-8.42,7.57-5.88,0-9.76-4.54-9.76-11.01Z"/>
      <path d="M261.3,79.18c0-3.5,2.42-5.62,7.72-6l7.81-.55v-1.28c0-4.52-1.28-8.13-6.9-8.13-5.07,0-7.4,2.74-7.54,5.56h-.26c.12-2.71,2.33-5.83,7.81-5.83s7.19,2.97,7.19,8.39v10.84c0,1.81.58,2.5,2.1,2.5.52,0,.99-.06,1.46-.15h.03v.26c-.5.09-.99.15-1.54.15-1.69,0-2.33-.82-2.33-2.8v-4.05h-.03c-1.4,4.63-4.63,6.84-8.91,6.84-3.99,0-6.58-1.92-6.58-5.77ZM268.03,84.69c5.13,0,8.8-3.9,8.8-9.35v-2.45l-8.07.58c-4.02.29-7.17,1.81-7.17,5.71,0,2.62,1.25,5.51,6.44,5.51Z"/>
      <path d="M285.36,78.86v-15.21h-5.59v-.26h15.12v.26h-9.23v15.21c0,4.17,1.43,5.83,4.95,5.83,1.37,0,2.59-.26,3.82-.82h.03v.26c-1.43.58-2.59.82-3.87.82-3.84,0-5.21-2.1-5.21-6.09Z"/>
      <path d="M298.44,58.79h.41v1.57h-.41v-1.57ZM298.5,63.4h.29v21.12h-.29v-21.12Z"/>
      <path d="M302.87,73.94c0-6.47,3.87-10.98,9.76-10.98s9.76,4.52,9.76,10.98-3.87,11.01-9.76,11.01-9.76-4.54-9.76-11.01ZM322.1,73.94c0-6.15-3.67-10.72-9.47-10.72s-9.47,4.54-9.47,10.72,3.64,10.75,9.47,10.75,9.47-4.66,9.47-10.75Z"/>
      <path d="M326.73,63.4v6.32h.03c1.22-4.37,4.28-6.76,8.65-6.76s6.73,2.36,6.73,7.69v13.87h-.29v-13.72c0-5.16-2.04-7.57-6.47-7.57-5.27,0-8.65,3.93-8.65,9.47v11.83h-.29v-21.12h.29Z"/>
    </g>
  </g>
</svg>