<?xml version="1.0" encoding="UTF-8"?>
<svg id="Layer_1" xmlns="http://www.w3.org/2000/svg" version="1.1" viewBox="0 0 348.08 91.3">
  <!-- Generator: Adobe Illustrator 30.3.0, SVG Export Plug-In . SVG Version: 2.1.3 Build 182)  -->
  <g>
    <path d="M5.16,85.29v-.54h.03c.57.15,1.06.21,1.63.21,2.09,0,3.02-.82,4.5-3.93l.39-.79L3.26,63.14h.66l6.44,13.06,1.66,3.35h.03l1.51-3.2,6.2-13.21h.7l-8.52,17.98c-1.63,3.45-2.72,4.38-5.08,4.38-.63,0-1.12-.06-1.69-.21Z"/>
    <path d="M20.15,74.08c0-6.68,3.99-11.39,10.15-11.39s10.15,4.71,10.15,11.39-4.02,11.42-10.15,11.42-10.15-4.74-10.15-11.42ZM39.83,74.08c0-6.23-3.66-10.85-9.52-10.85s-9.52,4.59-9.52,10.85,3.6,10.88,9.52,10.88,9.52-4.72,9.52-10.88Z"/>
    <path d="M59.53,85.05v-6.17h-.03c-1.3,4.29-4.41,6.62-8.7,6.62s-6.83-2.45-6.83-8.01v-14.35h.64v14.17c0,5.23,1.99,7.65,6.29,7.65,5.26,0,8.64-3.93,8.64-9.52v-12.3h.63v21.91h-.63Z"/>
    <path d="M64.46,63.14h.64v5.17h.03c1.12-3.42,3.54-5.62,7.25-5.62.73,0,1.42.09,2.02.27v.57h-.06c-.63-.15-1.3-.24-1.99-.24-4.99,0-7.25,4.35-7.25,7.98v13.78h-.64v-21.91Z"/>
    <path d="M83.23,74.08c0-6.68,3.99-11.39,10.12-11.39,4.8,0,8.01,2.93,8.7,7.28h-.6c-.7-4.05-3.63-6.74-8.1-6.74-5.89,0-9.49,4.59-9.49,10.85s3.6,10.88,9.52,10.88c4.5,0,7.68-2.9,8.19-7.34h.6c-.45,4.65-3.96,7.89-8.79,7.89-6.16,0-10.15-4.74-10.15-11.42Z"/>
    <path d="M104.74,74.08c0-6.68,3.99-11.39,10.15-11.39s10.15,4.71,10.15,11.39-4.02,11.42-10.15,11.42-10.15-4.74-10.15-11.42ZM124.42,74.08c0-6.23-3.66-10.85-9.52-10.85s-9.52,4.59-9.52,10.85,3.6,10.88,9.52,10.88,9.52-4.72,9.52-10.88Z"/>
    <path d="M129.19,63.14v6.13h.03c1.15-3.93,3.99-6.59,8.01-6.59,3.81,0,5.98,2.45,6.26,6.8h.03c1.12-4.26,4.11-6.8,8.07-6.8s6.38,2.51,6.38,8.01v14.36h-.63v-14.17c0-4.99-1.96-7.65-5.8-7.65-4.68,0-7.95,3.93-7.95,9.43v12.39h-.63v-14.17c0-5.17-1.96-7.65-5.8-7.65-4.81,0-7.95,4.14-7.95,9.49v12.33h-.64v-21.91h.64Z"/>
    <path d="M162.89,63.14v6.13h.03c1.15-3.93,3.99-6.59,8.01-6.59,3.81,0,5.98,2.45,6.26,6.8h.03c1.12-4.26,4.11-6.8,8.07-6.8s6.38,2.51,6.38,8.01v14.36h-.64v-14.17c0-4.99-1.96-7.65-5.8-7.65-4.68,0-7.95,3.93-7.95,9.43v12.39h-.63v-14.17c0-5.17-1.96-7.65-5.8-7.65-4.81,0-7.95,4.14-7.95,9.49v12.33h-.64v-21.91h.64Z"/>
    <path d="M211.52,85.05v-6.17h-.03c-1.3,4.29-4.41,6.62-8.7,6.62s-6.83-2.45-6.83-8.01v-14.35h.63v14.17c0,5.23,2,7.65,6.29,7.65,5.26,0,8.64-3.93,8.64-9.52v-12.3h.63v21.91h-.63Z"/>
    <path d="M217.08,63.14v6.13h.03c1.3-4.26,4.38-6.59,8.76-6.59s7.01,2.45,7.01,8.01v14.36h-.63v-14.17c0-5.2-2.02-7.65-6.47-7.65-5.29,0-8.7,3.96-8.7,9.49v12.33h-.63v-21.91h.63Z"/>
    <path d="M237.18,58.27h.73v1.81h-.73v-1.81ZM237.24,63.14h.63v21.91h-.63v-21.91Z"/>
    <path d="M241.44,74.08c0-6.68,3.99-11.39,10.12-11.39,4.81,0,8.01,2.93,8.7,7.28h-.6c-.7-4.05-3.63-6.74-8.1-6.74-5.89,0-9.49,4.59-9.49,10.85s3.6,10.88,9.52,10.88c4.5,0,7.68-2.9,8.19-7.34h.6c-.45,4.65-3.96,7.89-8.79,7.89-6.17,0-10.15-4.74-10.15-11.42Z"/>
    <path d="M262.99,79.49c0-3.63,2.42-5.89,8.1-6.29l7.8-.57v-1.27c0-4.59-1.36-8.13-6.92-8.13-4.99,0-7.34,2.66-7.53,5.53h-.57c.15-2.96,2.57-6.07,8.13-6.07s7.53,3.02,7.53,8.67v11.09c0,1.78.54,2.48,2.06,2.48.54,0,1-.06,1.45-.15h.06v.54c-.54.12-1.06.18-1.63.18-1.81,0-2.54-.88-2.54-2.96v-3.72h-.06c-1.45,4.47-4.71,6.68-9.01,6.68s-6.86-2-6.86-6.01ZM270.03,84.96c5.17,0,8.86-3.9,8.86-9.4v-2.39l-8.04.57c-4.23.33-7.22,1.87-7.22,5.74,0,2.66,1.33,5.47,6.41,5.47Z"/>
    <path d="M287.26,79.15v-15.47h-5.65v-.54h15.68v.54h-9.43v15.41c0,4.2,1.45,5.86,4.96,5.86,1.42,0,2.72-.3,4.02-.85h.03v.54c-1.48.6-2.75.85-4.14.85-4.02,0-5.47-2.12-5.47-6.35Z"/>
    <path d="M300.25,58.27h.73v1.81h-.73v-1.81ZM300.31,63.14h.63v21.91h-.63v-21.91Z"/>
    <path d="M304.51,74.08c0-6.68,3.99-11.39,10.15-11.39s10.15,4.71,10.15,11.39-4.02,11.42-10.15,11.42-10.15-4.74-10.15-11.42ZM324.19,74.08c0-6.23-3.66-10.85-9.52-10.85s-9.52,4.59-9.52,10.85,3.6,10.88,9.52,10.88,9.52-4.72,9.52-10.88Z"/>
    <path d="M328.96,63.14v6.13h.03c1.3-4.26,4.38-6.59,8.76-6.59s7.01,2.45,7.01,8.01v14.36h-.63v-14.17c0-5.2-2.02-7.65-6.47-7.65-5.29,0-8.7,3.96-8.7,9.49v12.33h-.63v-21.91h.63Z"/>
  </g>
  <g>
    <path d="M3.26,37.42h1.29c.55,8.36,5.66,13.84,16.66,13.84,9.41,0,14.51-4.37,14.51-11.31,0-5.29-2.95-8.92-8.85-9.84l-12.91-1.97c-6.64-.98-9.72-5.41-9.72-10.7,0-7.13,5.47-11.5,15.13-11.5,10.15,0,15.25,4.8,16.36,12.48h-1.29c-.98-7.01-5.78-11.38-15.07-11.38s-13.9,3.94-13.9,10.33c0,4.73,2.77,8.67,9.04,9.59l12.79,1.91c6.33.98,9.78,5.1,9.78,11.07,0,7.62-5.66,12.42-15.93,12.42-11.87,0-17.4-6.15-17.89-14.94Z"/>
    <path d="M47.1,6.86v12.48h.06c2.64-8.67,8.92-13.41,17.83-13.41s14.27,4.98,14.27,16.3v29.21h-1.29v-28.84c0-10.58-4.12-15.56-13.16-15.56-10.76,0-17.71,8.06-17.71,19.31v25.09h-1.29V6.86h1.29Z"/>
    <path d="M87.62,29.12c0-13.59,8.12-23.18,20.66-23.18s20.66,9.59,20.66,23.18-8.18,23.24-20.66,23.24-20.66-9.65-20.66-23.24ZM127.65,29.12c0-12.67-7.44-22.08-19.37-22.08s-19.37,9.35-19.37,22.08,7.32,22.14,19.37,22.14,19.37-9.59,19.37-22.14Z"/>
    <path d="M131.7,6.86h1.41l7.69,27.24,4.43,15.37h.06l4.43-15.31,7.75-27.3h1.35l7.75,27.18,4.43,15.5h.06c1.54-5.17,2.95-10.27,4.43-15.43l7.75-27.24h1.35l-12.79,44.58h-1.48l-9.96-34.99-2.15-7.69h-.06c-.8,2.58-1.6,5.41-2.21,7.69l-9.96,34.99h-1.48l-12.79-44.58Z"/>
    <path d="M190.42,6.86h15.99c8.55,0,13.34,3.94,13.34,11.01,0,5.47-3.44,8.92-7.75,9.96v.06c6.03,1.17,9.72,5.29,9.72,11.19,0,8.18-6.46,12.36-14.02,12.36h-17.28V6.86ZM218.53,17.99c0-6.4-4.37-10.02-12.24-10.02h-14.57v19.43h16.54c6.03,0,10.27-3.63,10.27-9.41ZM220.43,39.08c0-6.33-4.67-10.58-12.11-10.58h-16.6v21.83h15.87c6.83,0,12.85-3.69,12.85-11.25Z"/>
    <path d="M228.18,40.13c0-7.38,4.92-11.99,16.48-12.79l15.87-1.17v-2.58c0-9.35-2.77-16.54-14.08-16.54-10.15,0-14.94,5.41-15.31,11.25h-1.17c.31-6.03,5.23-12.36,16.54-12.36s15.31,6.15,15.31,17.65v22.57c0,3.63,1.11,5.04,4.18,5.04,1.11,0,2.03-.12,2.95-.31h.12v1.11c-1.11.25-2.15.37-3.32.37-3.69,0-5.17-1.78-5.17-6.03v-7.56h-.12c-2.95,9.1-9.59,13.59-18.33,13.59s-13.96-4.06-13.96-12.24ZM242.5,51.26c10.52,0,18.02-7.93,18.02-19.12v-4.86l-16.36,1.17c-8.61.68-14.7,3.81-14.7,11.68,0,5.41,2.71,11.13,13.04,11.13Z"/>
    <path d="M287.94,51.26c4,0,7.75-.86,11.56-2.77h.06v1.11c-3.63,1.84-7.56,2.77-11.75,2.77-9.16,0-13.77-4.49-13.77-14.45V6.86h1.29v30.99c0,9.35,4.06,13.41,12.61,13.41Z"/>
    <path d="M320.1,51.26c4,0,7.75-.86,11.56-2.77h.06v1.11c-3.63,1.84-7.56,2.77-11.75,2.77-9.16,0-13.77-4.49-13.77-14.45V6.86h1.29v30.99c0,9.35,4.06,13.41,12.61,13.41Z"/>
    <path d="M332.59,42.77h12.18v12.67h-12.18v-12.67Z"/>
  </g>
</svg>